<?xml version="1.0" standalone="no"?>
<!DOCTYPE svg PUBLIC "-//W3C//DTD SVG 1.1//EN" "http://www.w3.org/Graphics/SVG/1.1/DTD/svg11.dtd" >
<svg xmlns="http://www.w3.org/2000/svg" xmlns:xlink="http://www.w3.org/1999/xlink" version="1.1">
<metadata></metadata>
<defs>
<font id="motorwayregular" horiz-adv-x="1139" >
<font-face units-per-em="2048" ascent="1638" descent="-410" />
<missing-glyph horiz-adv-x="569" />
<glyph horiz-adv-x="0" />
<glyph unicode="&#xd;" horiz-adv-x="569" />
<glyph unicode=" "  horiz-adv-x="569" />
<glyph unicode="&#x09;" horiz-adv-x="569" />
<glyph unicode="&#xa0;" horiz-adv-x="569" />
<glyph unicode="!" horiz-adv-x="569" />
<glyph unicode="&#x22;" horiz-adv-x="727" />
<glyph unicode="#" />
<glyph unicode="$" />
<glyph unicode="%" horiz-adv-x="1821" />
<glyph unicode="&#x26;" horiz-adv-x="1366" />
<glyph unicode="'" horiz-adv-x="391" />
<glyph unicode="(" horiz-adv-x="682" />
<glyph unicode=")" horiz-adv-x="682" />
<glyph unicode="*" horiz-adv-x="797" />
<glyph unicode="+" horiz-adv-x="1196" />
<glyph unicode="," horiz-adv-x="569" />
<glyph unicode="-" horiz-adv-x="880" d="M240 858q57 136 175 136q93 0 156 -136l-156 -117h-19l-78 59q19 -137 58 -137h20q155 24 155 117h39q-25 -175 -175 -175q-143 0 -175 253z" />
<glyph unicode="." horiz-adv-x="569" />
<glyph unicode="/" horiz-adv-x="1196" />
<glyph unicode="0" horiz-adv-x="818" d="M59 310v866q70 324 349 324q246 0 329 -307h-39q0 68 -39 68l39 -205l-19 -170l19 -491q-63 -290 -329 -290q-233 47 -233 187h-19v-51q101 -188 136 -188h232q93 0 232 120v-34q-97 -137 -271 -137h-116q-214 0 -271 308zM214 327h19q0 51 39 51q0 -103 116 -103 q155 0 155 120v661q0 154 -135 154l-78 -17v17q0 43 78 51l19 -17h19l78 17l77 -68v17q-40 102 -155 102h-97q-135 0 -135 -119v-866zM717 566v68h39v-68h-39zM717 1056v69h39v-69h-39z" />
<glyph unicode="1" horiz-adv-x="819" d="M238 1209v175q68 117 175 117h98l58 -58v-20h-58v-1248l-59 -59l-58 39q0 -58 -39 -58h-20v917q-97 68 -97 195zM296 1131l98 -39v19q-9 40 -98 78v-58zM374 38v20h117l98 19v-19l-59 -58h-117z" />
<glyph unicode="2" horiz-adv-x="822" d="M59 1139v56q91 299 322 299h20q342 -32 342 -280q-81 0 -81 -187q-177 -280 -322 -654v-37h21l80 37v-56h261l61 -56v-19q-81 0 -81 -93l-20 -19h-462l-20 19h-20q0 -56 -41 -56h-20v131l422 915v19l-60 37h-20l-101 -18v18l161 75q0 -28 81 -56v19l-81 74h-140 q-112 0 -161 -149h-40l-21 19h-20l-40 -38h-20zM99 1046v37h141l60 38v-38l-60 -56zM139 1v49h423l201 24v-24l-40 -49h-222l-341 -23z" />
<glyph unicode="3" horiz-adv-x="820" d="M59 358v94l60 56h100q51 0 101 -187h140q80 30 80 131v19q0 187 -160 187v19l120 38l60 -57h21v19q-26 56 -181 113v-57h-40v188l140 75v150l-40 37h-20l-120 -37v19q60 93 160 93l80 -37v19l-60 56h-140q-161 -19 -161 -150h-40l-20 19h-20q0 -57 -40 -57h-20v113 q0 208 381 281q216 0 301 -300h-20q-60 0 -60 -37v-188l-40 -150v-37h20l80 37v-37l-20 -19l60 -113v-18h-80v-225q-40 -282 -261 -282q-281 38 -281 207h-20v-19l80 -188q17 -75 161 -75h120q88 0 241 132v-38q-104 -150 -321 -150q-341 67 -341 356zM99 1052v19h100 l101 19v-19l-60 -56h-101z" />
<glyph unicode="4" horiz-adv-x="819" d="M61 433v225q329 845 412 845h126l36 -38v-37h-54v-751q36 0 36 56h35q0 -52 90 -131v-19q-54 0 -54 -75l-107 -113v-263h-36l-18 19h-18q0 -56 -36 -56h-18v206l-36 38h-286l-36 37v19h269l89 19l36 -38h18v19l-54 56h-286l-54 38q0 -56 -36 -56h-18zM240 658l90 75v-37 l-18 -19v-19h90l53 56v132h-53v18q0 57 107 57v37h-179l-90 -225v-75zM491 38v19h161v-19l-35 -37h-90zM688 339v19l54 56h18v-19l-54 -56h-18z" />
<glyph unicode="5" horiz-adv-x="819" d="M55 392v94l57 57h114l58 -57v-19h-58v-112l58 37h19q5 -94 57 -94h95q95 0 95 282v75q0 57 -324 57l-76 19l-19 18v38l95 -19h210l19 -19l19 19h57q58 0 58 -75h19v38q0 94 -324 94l-134 56v-56h-57v620l57 56h477l57 -56v-19q-57 0 -57 -75l-58 -56h-266l-57 -57v-169 h19q0 56 38 56q0 -112 247 -112q210 -136 210 -264h-57v-300q0 -225 -229 -339h-95q-138 0 -229 207h-19v-19l76 -188v-19h-19q-133 134 -133 301zM226 54h286q122 0 191 131h38v-18q-39 -88 -191 -169h-209q-99 0 -115 56zM322 1163v19l57 56h229l95 19v-19l-57 -56h-229z " />
<glyph unicode="6" horiz-adv-x="819" d="M55 378v779q45 345 363 345h40q154 0 282 -200l-141 -36l-121 36h-141q-121 0 -121 -145v-90l61 36h20v-73h60q404 0 404 -290l-61 -54q0 -544 -201 -544l-21 -18h-80q-180 0 -262 236h-21v-18q93 -272 182 -272l101 -18h40q151 0 302 145v-36q-129 -163 -302 -163 q-383 61 -383 380zM216 396h20q0 55 41 55q0 -145 141 -145h40l81 72v326l-101 18h-101v18l41 37h60l20 -18l20 18h61l60 -37v19q-20 72 -121 72h-201q-61 -11 -61 -145v-290zM337 1193l61 55l80 -18l81 18l20 -18v-18l-20 -19v-18zM579 1103v36l182 73v-19 q-81 -90 -182 -90zM680 722l40 37v36h-40v-73z" />
<glyph unicode="7" horiz-adv-x="825" d="M59 137l436 1029h-357l-39 39v20h297l138 20v-40h20v20l-20 59h-356l-60 40q0 -79 -39 -79l-20 20v178l59 59h575l59 -59v-20h-59v-139q-403 -1102 -515 -1167l-20 20h-20l-59 -60zM99 38v20h158l79 59v-40l-79 -78h-119z" />
<glyph unicode="8" horiz-adv-x="819" d="M60 426q0 241 93 389q-56 173 -56 315v37q0 280 333 333q172 0 296 -296v-19l-18 -18h-19l-18 18q0 -148 -74 -314v-56l55 37h37v-18l-18 -19v-18q47 0 74 -167h-56v-222q0 -155 -240 -296h-19q-193 0 -277 185h-19v-19l56 -111v-55h-19q-111 74 -111 314zM208 75h19 l166 -37q185 0 333 185v-37q-42 -98 -203 -185h-130q-185 23 -185 74zM227 352l74 56q0 -93 37 -93h74q129 0 129 148q0 142 -74 167h-74l-55 -37h-19v19q30 74 130 74l18 -19l37 37q0 -28 74 -55v18l-74 74h-185q-92 0 -92 -389zM245 1037l19 19h55q5 -93 56 -93h18 q111 0 111 111v93l-92 18l-56 -37v37q0 45 167 56l37 -37v18q-19 74 -111 74h-111q-86 0 -93 -259z" />
<glyph unicode="9" horiz-adv-x="824" d="M62 849v325q0 281 392 325q309 -153 309 -325h-21l-20 18h-21v-650q-31 -416 -288 -416q-88 0 -207 91h-20v-19l62 -126h-21q-124 90 -124 181q136 90 227 90l41 -36h62l83 72v54q0 44 -186 54q-268 151 -268 362zM124 794q104 -270 289 -270l61 -18l21 18v18l82 -36v18 q0 34 -309 126q-124 120 -124 181h-20v-37zM248 831h20q0 54 41 54l42 -109h103l62 55v307q-21 54 -124 54h-21v-36h-41v18q0 54 165 72q0 -27 82 -54v18q-41 90 -144 90h-144l-41 -72v-397zM289 54q342 0 433 144v-36q-96 -126 -248 -162q-185 18 -185 54z" />
<glyph unicode=":" horiz-adv-x="569" />
<glyph unicode=";" horiz-adv-x="569" />
<glyph unicode="&#x3c;" horiz-adv-x="1196" />
<glyph unicode="=" horiz-adv-x="1196" />
<glyph unicode="&#x3e;" horiz-adv-x="1196" />
<glyph unicode="?" />
<glyph unicode="@" horiz-adv-x="2079" />
<glyph unicode="A" horiz-adv-x="820" d="M54 93q151 1408 219 1408h188q62 0 282 -1350h-31l-16 135h-31l31 -155l-16 -19h-15l-47 39l-16 -58h-31q-27 270 -79 270h-140l-79 -19v19l32 39h109l94 38l63 -38v19l-47 58h-266q-47 0 -94 -348l-16 -19h-16l-15 19h-16l-31 -38h-16zM70 35l15 19h141v-19l-31 -38h-94 zM258 691l47 39q31 0 31 -58h78q31 0 31 58q-22 196 -62 250q0 39 78 39v19l-31 39h-125zM492 1212l63 -347h16v57l-47 290h-32zM602 35v19h157v-19l-32 -38h-94z" />
<glyph unicode="B" horiz-adv-x="819" d="M60 94v1350l55 57q550 0 550 -154q30 -4 74 -154h-19l-18 19h-18l-74 -405v-19l92 19l55 -231h-18l-19 19h-18q-31 -390 -293 -482h-239l-55 39q0 -78 -37 -78zM97 36v19h385q70 0 165 97v-20q-59 -134 -165 -134h-349zM207 344h18q0 58 37 58h18q0 -77 37 -77h110 q92 50 92 154v97l-55 58h-92l-92 -20v20l55 58h92l18 -20l19 20h55q36 0 36 -58h19v19q-36 88 -74 96h-238l-55 -57v-348zM207 981h18q0 58 37 58h18q0 -78 37 -78h92q110 0 110 116v77l-92 20h-55l-92 -20v20l55 57h92l18 -19l19 19h55l55 -38v19q-19 77 -110 77h-202 l-55 -58v-250zM665 171v19l55 77v-38z" />
<glyph unicode="C" horiz-adv-x="821" d="M81 332v821q68 347 329 347q220 0 310 -310v-19h-37q0 73 -36 73l18 -127v-19l-36 -36l-19 18h-18l-18 -55h-37v92q-29 73 -127 73l-73 -19v19q0 45 73 54l18 -18h18l73 18l73 -73v19q-38 109 -146 109h-91q-128 0 -128 -164v-785h18q0 55 37 55q0 -110 109 -110 q146 0 146 201q5 91 55 91h91l55 -55v-18h-55v-18q-33 -383 -273 -383h-37q-155 0 -219 200h-18v-18l73 -182q0 -55 91 -55h183q87 0 219 128v-37q-104 -146 -219 -146h-146q-256 68 -256 329zM574 971v18h164l-55 -55h-73z" />
<glyph unicode="D" horiz-adv-x="819" d="M57 94v1350l54 57h162q485 0 485 -347h-18l-18 20h-18v-637q0 -424 -413 -424h-126l-54 39q0 -78 -36 -78zM93 36v19h270q252 0 359 154v-19q-74 -192 -359 -192h-234zM219 344h18q0 58 36 58h18q0 -77 36 -77h89q126 0 126 135v656l-54 58h-107l-90 -20v20l54 57h107 l18 -19l54 19l72 -38v19l-72 77h-251l-54 -58v-887z" />
<glyph unicode="E" horiz-adv-x="820" d="M61 93v1349l63 57h528l64 -57v-19q-85 0 -85 -95l-21 -19h-317l-63 -57v-304q42 0 42 57h42q0 -76 43 -76h190l63 -57v-19q-84 0 -84 -95l-21 -19h-212l-63 -57v-342q42 0 42 57h42q0 -76 43 -76h317l63 -57v-19q-63 0 -63 -76l-64 -57h-422l-64 38q0 -57 -42 -57h-21z M103 36v19h549l106 19v-19l-63 -56h-550zM357 625v19q0 38 274 57v-19l-63 -57h-211zM357 1195v19l42 38h232l106 19v-19l-63 -57h-317z" />
<glyph unicode="F" horiz-adv-x="820" d="M58 92v1352l44 57l537 2l53 -21l44 -38v-38q-65 0 -65 -76l-44 -38h-328l-66 -57v-286q44 0 44 57h44q0 -76 43 -76h197l66 -57v-19q-66 0 -66 -77l-65 -57h-197l-66 -57v-495l-66 -57l-43 38q0 -57 -44 -57h-22zM102 34v20h197v-20l-44 -37h-109zM342 606v19l44 38h153 l110 19v-19l-66 -57h-241zM342 1178v19l44 38h372v-19l-44 -38h-372z" />
<glyph unicode="G" horiz-adv-x="819" d="M55 309v787q0 270 167 374q89 30 179 30q80 0 161 -24q174 -50 174 -306h-19q-39 0 -39 73h-20v-19l20 -109v-19l-39 -36h-20l-19 18h-20q0 -73 -38 -73q0 183 -137 183h-39l-58 -37v37q0 42 97 55l20 -19h19l78 19l39 -73h19v18q0 110 -127 132h-156q-67 -22 -106 -187 v-806q39 0 39 55h39q0 -92 117 -92q136 0 136 129v91q-97 0 -97 37v18h19l20 -18h19l39 36l58 -36v18q0 36 -136 92q0 -55 -39 -55h-19v146l58 55h253l59 -55v-18h-59v-238q0 -337 -311 -385h-20q-233 57 -233 183h-20v-36q72 -202 176 -202h194q94 0 234 128v-18 q-83 -164 -273 -164h-117q-223 0 -272 311zM561 968v18h195l-59 -55h-97z" />
<glyph unicode="H" horiz-adv-x="818" d="M63 96v1349l59 59h117l59 -59v-19h-59v-469h20q0 58 39 58l19 -98h176l59 59v450l59 59h97l59 -59l-59 -20v-1212l-39 -39h-19l-20 19h-19q0 -58 -39 -58h-20v449l-39 40h-176v19q0 39 215 59l39 -39h20v19l-59 59h-293l-20 -98v-450l-59 -58l-58 39q0 -59 -39 -59h-20z M102 37v20h117l98 20v-20l-58 -58h-118zM591 57v20h176v-20l-39 -39h-98z" />
<glyph unicode="I" horiz-adv-x="820" d="M301 100v1334l59 59h98l59 -59v-19h-59v-1236l-59 -59l-39 39l-20 -59h-39zM340 41v20h177v-20l-39 -39h-98z" />
<glyph unicode="J" horiz-adv-x="820" d="M58 362v95l57 57h95q39 0 95 -171l113 -38h38l76 76v152l-19 512l19 417l57 38h95l57 -57v-19h-57v-1043q-79 -265 -247 -265h-37q-149 0 -266 208h-19v-19q114 -174 111 -218v-27q-168 113 -168 302zM210 362l38 38v38h-38v-76zM248 59h265q105 0 209 133v-38 q-108 -152 -209 -152h-151q-99 0 -114 57zM248 59z" />
<glyph unicode="K" horiz-adv-x="822" d="M33 97v1343l58 58h115l57 -58v-19h-57v-77l-19 -269v-19h19q14 96 57 96h20v-77h38q126 302 269 423h154l38 -39q-134 0 -173 -192q-187 -219 -250 -441v-77l58 39h19q0 -84 346 -595v-58l-115 -19q-288 399 -288 460h-154l-38 -38v-365l-39 -38h-19l-19 19h-19 q0 -57 -39 -57h-19zM71 39v19h96l96 19v-19l-57 -57h-96zM263 461v19l77 58l269 -403l-38 -38l-250 364h-58zM456 807v38l38 38v-38zM571 1037v19l115 154v-39l-77 -134h-38zM609 39v19h115l76 19v-19l-37 -57h-115z" />
<glyph unicode="L" horiz-adv-x="822" d="M61 99v1342l59 59h119l59 -59v-20h-59l-20 -691v-394h20q0 59 39 59h20q0 -79 39 -79h316l59 -59v-20q-78 0 -78 -98l-20 -20h-435l-59 39q0 -79 -39 -79zM100 40v20l60 -20l375 20h99l98 19v-19l-59 -59h-533z" />
<glyph unicode="M" horiz-adv-x="867" d="M30 99v1362l31 39h154q60 0 169 -691l16 -19q0 -58 31 -58h30q154 768 216 768h108l46 -58v-19h-46v-1248l-46 -57l-31 38q0 -57 -31 -57h-15v422h-47v19q0 58 93 58v38h-154l-108 -480h-15l-16 19h-15q0 -76 -31 -76l-108 422q-46 0 -46 38l92 39v38h-154v-461l-46 -57 l-46 19v-38h-31zM45 41l16 19h138v-19l-30 -38h-93zM276 1039l31 39v19l-31 -39v-19zM307 905l31 38l-31 39v-77zM323 866l15 -96h16v58l-16 58h-15v-20zM384 41l16 19h108v-19l-31 -38h-62zM692 41v19h139v-19l-31 -38h-77z" />
<glyph unicode="N" horiz-adv-x="818" d="M62 99v1342l51 59h137q57 0 222 -592v-20h68v553l51 59h103l51 -59v-20h-51v-1243l-51 -59l-69 59v-79h-17q-62 92 -222 612q-51 0 -51 39l51 40h34v-40h17v20l-17 59h-170v-651l-52 -59l-34 39q0 -59 -34 -59h-17zM96 40v20h154v-20l-34 -39h-86zM386 711l35 -99h17v20 l-34 98h-18v-19zM438 553q25 -79 51 -79v20l-34 98h-17v-39zM489 435l17 -99h17v59l-17 59h-17v-19zM523 296l34 -98h17v20l-34 98h-17v-20zM557 60l205 19v-19l-51 -59h-102z" />
<glyph unicode="O" horiz-adv-x="818" d="M59 310v866q70 324 349 324q246 0 329 -307h-39q0 68 -39 68l39 -205l-19 -170l19 -491q-63 -290 -329 -290q-233 47 -233 187h-19v-51q101 -188 136 -188h232q93 0 232 120v-34q-97 -137 -271 -137h-116q-214 0 -271 308zM214 327h19q0 51 39 51q0 -103 116 -103 q155 0 155 120v661q0 154 -135 154l-78 -17v17q0 43 78 51l19 -17h19l78 17l77 -68v17q-40 102 -155 102h-97q-135 0 -135 -119v-866zM717 566v68h39v-68h-39zM717 1056v69h39v-69h-39z" />
<glyph unicode="P" horiz-adv-x="818" d="M54 1461l53 38h353q264 -39 264 -285h-35v-151l18 -76q-86 -342 -477 -342l-17 -19v-474l-36 -38l-52 38q0 -76 -36 -76l-17 19v19zM125 0v19q0 38 176 57v-19l-53 -57h-123zM213 892h17q0 57 36 57h17q0 -76 36 -76h141l88 95v151l-53 57h-123l-89 -19v19q0 57 194 57 l18 -19l18 19v19l70 -38v19l-53 57h-264l-53 -57v-341zM283 531v19q0 50 318 95l123 133v-38q-47 -166 -405 -209h-36zM724 1044v113h36v-113h-36z" />
<glyph unicode="Q" horiz-adv-x="818" d="M57 312v787q0 270 176 348l156 55q351 -74 351 -330h-20q-39 0 -39 74h-19q39 -306 39 -788l-78 -274v-55h19l59 37h19v-19l-19 -18l39 -73l-20 -19h-19l-20 19l-39 -37h-19l-98 92h-156q-234 56 -234 183h-19v-37q71 -201 175 -201h137l19 -19h20l39 37l58 -55v-54h-19 l-59 36h-156q-224 0 -273 311zM194 330q39 0 39 55h39q0 -73 39 -73l39 37v311l58 55l78 -55h39v476q-19 55 -117 55h-39l-58 -37v37q0 42 97 55l20 -19h19l78 19l39 -74h20v19q0 110 -137 110h-156q-68 0 -97 -202v-769zM545 -54l214 19v-19l-58 -55h-98zM720 861v37l39 36 v-73h-39zM720 1044v74h39v-74h-39z" />
<glyph unicode="R" horiz-adv-x="818" d="M56 1366v76l54 57h360q271 -39 271 -285h-54l18 -189q0 -165 -162 -342v-95h18l144 133v-38l-90 -114q144 -329 144 -398l-108 -57l-36 95h-18v-38l18 -57l-18 -19h-36q-145 455 -181 455l-90 -19v19l108 76q54 0 54 -76h18v57l-54 57h-144l-54 -57v-455l-36 -38l-54 38 q0 -76 -36 -76l-18 19v19zM128 0v19q0 38 180 57v-19l-54 -57h-126zM218 911l54 38h18q0 -76 36 -76h144l91 95v151l-55 57h-126l-90 -19v19q0 44 253 76l36 -38h18v19l-54 57h-271l-54 -57v-322zM254 133v76h36v-38zM470 512l18 -57h18v19l-18 57h-18v-19zM506 417l37 -94 h18v19l-36 94h-19v-19zM561 247l18 -19h18v19l-18 57h-18v-57zM597 38l18 19h144v-19l-36 -38h-90zM723 1082v56h36v-56h-36z" />
<glyph unicode="S" horiz-adv-x="818" d="M57 369v109l40 37h120l61 -55v-18h-61v-92h21q0 55 40 55h20q5 -91 60 -91h40l100 18v201q-126 128 -200 128v55q133 0 240 -146h20v55q-104 100 -421 292l20 -91v-37h-20q-60 0 -80 256v183q26 274 301 274q287 0 361 -256l20 -91l-20 -19h-20q0 110 -40 110 q0 -146 -40 -146l-61 36q0 -73 -40 -73q-27 128 -60 128h-40l-100 -18v18q0 51 180 73l60 -54v36l-60 55h-160q-121 0 -121 -110v-183q41 0 41 55h40q0 -79 361 -310l80 -238h-40l-40 128h-20v-18q40 -72 40 -201v-19q-62 -292 -261 -292q-178 0 -281 237h-20v-18l121 -258 l-22 2q-4 -1 -7 -1q-60 0 -152 294zM177 771l40 36l41 -36v-55zM257 65l181 -7q134 0 241 73v-37q0 -73 -261 -91q-163 16 -163 54q0 4 2 8zM538 1027v18h121l100 18v-18l-60 -55h-121z" />
<glyph unicode="T" horiz-adv-x="818" d="M60 1265v176l58 58h585l58 -58v-20q-58 0 -58 -78q0 -58 -195 -58l-39 -59v-1051l-58 -58l-39 39q0 -59 -39 -59h-20v1032q0 39 -195 39l-19 19v39h117l97 20l39 -39h20v19q0 59 -234 78l-20 20q0 -59 -39 -59h-19zM352 39v19h175v-19l-39 -39h-97zM566 1168v19l39 39 h156v-19l-39 -39h-156z" />
<glyph unicode="U" horiz-adv-x="818" d="M62 456v986l57 57h114l56 -57v-19h-56v-1061h18q0 56 38 56h19q0 -88 76 -113h38q102 0 133 76v151l-19 512l19 417l56 38h95l57 -57v-19h-57v-1042q-79 -266 -246 -266h-38q-148 0 -265 209h-19v-19l95 -152v-57h-19q-152 89 -152 360zM270 58h266q99 0 208 133v-38 q-108 -151 -208 -151h-152q-98 0 -114 56z" />
<glyph unicode="V" horiz-adv-x="819" d="M59 1401h16l-16 19v40l33 39h99q77 0 213 -806h66q118 806 164 806h99l33 -39v-20q-99 0 -99 -413l-181 -904h-49l-49 39q0 -59 -33 -59h-17zM207 1381l16 -118h17v59l-17 79h-16v-20zM322 771l33 40v19l-33 -39v-20zM371 44v20h198v-20l-33 -39h-132z" />
<glyph unicode="W" horiz-adv-x="862" d="M32 1459l37 38h75q38 0 50 -155h-25q0 78 -25 78l25 -330l38 39h12v-78h-12l-13 20h-12v-117l37 39h13v-77h-13l-12 19h-13v-116l38 39h12v-97h25q18 0 75 504q39 232 75 232h87q32 0 62 -368h-25l-12 194h-25l37 -388h13l12 58l-12 78v19h25l12 -194h50v20 q50 581 87 581h75l25 -38v-20q-62 0 -62 -310q-113 -979 -137 -1008h-13q-31 0 -37 77h-13v-97h-25q-58 601 -100 601v20q0 53 63 58v39h-125q-70 -698 -125 -698h-24l-38 38l-12 -58h-25zM169 1245l25 39h13v-77h-13zM182 43v20h124l38 38v-38l-38 -59h-99zM493 1342l25 39 v39h-25v-78zM568 43v20h125v-20l-25 -39h-75z" />
<glyph unicode="X" horiz-adv-x="860" d="M20 95v20l257 673l-220 635v39l36 38h111q57 -3 183 -327h37l129 289l55 38h147l36 -38q-110 -19 -110 -96q-86 -126 -202 -501v-96l55 38h19l238 -692h-110q-73 38 -73 115h-19l19 -96v-39h-19q-29 0 -147 308h-18l-18 -19h-19v19q11 58 129 58v19l-37 39h-128 l-221 -404zM38 38v19h166l18 19h18v-38l-36 -38h-129zM112 1404l18 -58h19v20l-19 77h-18v-39zM149 1308l73 -173h18v19l-73 173h-18v-19zM240 1077l74 -193h18v39l-73 192h-19v-38zM516 384l55 -135h18v20l-55 134h-18v-19zM608 38v19h220v-19l-37 -38h-147z" />
<glyph unicode="Y" horiz-adv-x="860" d="M26 1438v20l39 39h138q64 0 197 -433h39q50 0 158 414l19 19h158l39 -39q-157 -39 -157 -354q-177 -461 -177 -551v-374l-40 -40l-19 20h-20q0 -59 -40 -59h-19v98q0 545 -158 788zM105 1360q29 -79 59 -79v20l-40 98h-19v-39zM164 1241l19 -98h20v59l-20 59h-19v-20z M203 1104l20 -59h19v19l-19 59h-20v-19zM242 1005l40 -98h19v20l-39 98h-20v-20zM301 848l59 -79v20l-39 98h-20v-39zM380 41v19h158v-19l-40 -40h-78z" />
<glyph unicode="Z" horiz-adv-x="819" d="M59 84v174l407 911h-333l-37 39v19h278l129 20l19 -20v20l-37 39h-315l-55 38q0 -77 -37 -77l-19 19v175l56 58h573l56 -58v-20h-56v-77l-407 -950v-58h19l55 39h19v-59h314l56 -58v-19q-74 0 -74 -97l-19 -19h-499l-19 19h-18q0 -78 -37 -78zM96 6v39h407l259 39v-20 l-55 -58h-315l-277 -19z" />
<glyph unicode="[" horiz-adv-x="569" />
<glyph unicode="\" horiz-adv-x="569" />
<glyph unicode="]" horiz-adv-x="569" />
<glyph unicode="^" horiz-adv-x="961" />
<glyph unicode="_" />
<glyph unicode="`" horiz-adv-x="682" />
<glyph unicode="a" horiz-adv-x="820" d="M54 93q151 1408 219 1408h188q62 0 282 -1350h-31l-16 135h-31l31 -155l-16 -19h-15l-47 39l-16 -58h-31q-27 270 -79 270h-140l-79 -19v19l32 39h109l94 38l63 -38v19l-47 58h-266q-47 0 -94 -348l-16 -19h-16l-15 19h-16l-31 -38h-16zM70 35l15 19h141v-19l-31 -38h-94 zM258 691l47 39q31 0 31 -58h78q31 0 31 58q-22 196 -62 250q0 39 78 39v19l-31 39h-125zM492 1212l63 -347h16v57l-47 290h-32zM602 35v19h157v-19l-32 -38h-94z" />
<glyph unicode="b" horiz-adv-x="819" d="M60 94v1350l55 57q550 0 550 -154q30 -4 74 -154h-19l-18 19h-18l-74 -405v-19l92 19l55 -231h-18l-19 19h-18q-31 -390 -293 -482h-239l-55 39q0 -78 -37 -78zM97 36v19h385q70 0 165 97v-20q-59 -134 -165 -134h-349zM207 344h18q0 58 37 58h18q0 -77 37 -77h110 q92 50 92 154v97l-55 58h-92l-92 -20v20l55 58h92l18 -20l19 20h55q36 0 36 -58h19v19q-36 88 -74 96h-238l-55 -57v-348zM207 981h18q0 58 37 58h18q0 -78 37 -78h92q110 0 110 116v77l-92 20h-55l-92 -20v20l55 57h92l18 -19l19 19h55l55 -38v19q-19 77 -110 77h-202 l-55 -58v-250zM665 171v19l55 77v-38z" />
<glyph unicode="c" horiz-adv-x="821" d="M81 332v821q68 347 329 347q220 0 310 -310v-19h-37q0 73 -36 73l18 -127v-19l-36 -36l-19 18h-18l-18 -55h-37v92q-29 73 -127 73l-73 -19v19q0 45 73 54l18 -18h18l73 18l73 -73v19q-38 109 -146 109h-91q-128 0 -128 -164v-785h18q0 55 37 55q0 -110 109 -110 q146 0 146 201q5 91 55 91h91l55 -55v-18h-55v-18q-33 -383 -273 -383h-37q-155 0 -219 200h-18v-18l73 -182q0 -55 91 -55h183q87 0 219 128v-37q-104 -146 -219 -146h-146q-256 68 -256 329zM574 971v18h164l-55 -55h-73z" />
<glyph unicode="d" horiz-adv-x="819" d="M57 94v1350l54 57h162q485 0 485 -347h-18l-18 20h-18v-637q0 -424 -413 -424h-126l-54 39q0 -78 -36 -78zM93 36v19h270q252 0 359 154v-19q-74 -192 -359 -192h-234zM219 344h18q0 58 36 58h18q0 -77 36 -77h89q126 0 126 135v656l-54 58h-107l-90 -20v20l54 57h107 l18 -19l54 19l72 -38v19l-72 77h-251l-54 -58v-887z" />
<glyph unicode="e" horiz-adv-x="820" d="M61 93v1349l63 57h528l64 -57v-19q-85 0 -85 -95l-21 -19h-317l-63 -57v-304q42 0 42 57h42q0 -76 43 -76h190l63 -57v-19q-84 0 -84 -95l-21 -19h-212l-63 -57v-342q42 0 42 57h42q0 -76 43 -76h317l63 -57v-19q-63 0 -63 -76l-64 -57h-422l-64 38q0 -57 -42 -57h-21z M103 36v19h549l106 19v-19l-63 -56h-550zM357 625v19q0 38 274 57v-19l-63 -57h-211zM357 1195v19l42 38h232l106 19v-19l-63 -57h-317z" />
<glyph unicode="f" horiz-adv-x="820" d="M58 92v1352l44 57l537 2l53 -21l44 -38v-38q-65 0 -65 -76l-44 -38h-328l-66 -57v-286q44 0 44 57h44q0 -76 43 -76h197l66 -57v-19q-66 0 -66 -77l-65 -57h-197l-66 -57v-495l-66 -57l-43 38q0 -57 -44 -57h-22zM102 34v20h197v-20l-44 -37h-109zM342 606v19l44 38h153 l110 19v-19l-66 -57h-241zM342 1178v19l44 38h372v-19l-44 -38h-372z" />
<glyph unicode="g" horiz-adv-x="819" d="M55 309v787q0 270 167 374q89 30 179 30q80 0 161 -24q174 -50 174 -306h-19q-39 0 -39 73h-20v-19l20 -109v-19l-39 -36h-20l-19 18h-20q0 -73 -38 -73q0 183 -137 183h-39l-58 -37v37q0 42 97 55l20 -19h19l78 19l39 -73h19v18q0 110 -127 132h-156q-67 -22 -106 -187 v-806q39 0 39 55h39q0 -92 117 -92q136 0 136 129v91q-97 0 -97 37v18h19l20 -18h19l39 36l58 -36v18q0 36 -136 92q0 -55 -39 -55h-19v146l58 55h253l59 -55v-18h-59v-238q0 -337 -311 -385h-20q-233 57 -233 183h-20v-36q72 -202 176 -202h194q94 0 234 128v-18 q-83 -164 -273 -164h-117q-223 0 -272 311zM561 968v18h195l-59 -55h-97z" />
<glyph unicode="h" horiz-adv-x="818" d="M63 96v1349l59 59h117l59 -59v-19h-59v-469h20q0 58 39 58l19 -98h176l59 59v450l59 59h97l59 -59l-59 -20v-1212l-39 -39h-19l-20 19h-19q0 -58 -39 -58h-20v449l-39 40h-176v19q0 39 215 59l39 -39h20v19l-59 59h-293l-20 -98v-450l-59 -58l-58 39q0 -59 -39 -59h-20z M102 37v20h117l98 20v-20l-58 -58h-118zM591 57v20h176v-20l-39 -39h-98z" />
<glyph unicode="i" horiz-adv-x="820" d="M301 100v1334l59 59h98l59 -59v-19h-59v-1236l-59 -59l-39 39l-20 -59h-39zM340 41v20h177v-20l-39 -39h-98z" />
<glyph unicode="j" horiz-adv-x="820" d="M58 362v95l57 57h95q39 0 95 -171l113 -38h38l76 76v152l-19 512l19 417l57 38h95l57 -57v-19h-57v-1043q-79 -265 -247 -265h-37q-149 0 -266 208h-19v-19q114 -174 111 -218v-27q-168 113 -168 302zM210 362l38 38v38h-38v-76zM248 59h265q105 0 209 133v-38 q-108 -152 -209 -152h-151q-99 0 -114 57zM248 59z" />
<glyph unicode="k" horiz-adv-x="822" d="M33 97v1343l58 58h115l57 -58v-19h-57v-77l-19 -269v-19h19q14 96 57 96h20v-77h38q126 302 269 423h154l38 -39q-134 0 -173 -192q-187 -219 -250 -441v-77l58 39h19q0 -84 346 -595v-58l-115 -19q-288 399 -288 460h-154l-38 -38v-365l-39 -38h-19l-19 19h-19 q0 -57 -39 -57h-19zM71 39v19h96l96 19v-19l-57 -57h-96zM263 461v19l77 58l269 -403l-38 -38l-250 364h-58zM456 807v38l38 38v-38zM571 1037v19l115 154v-39l-77 -134h-38zM609 39v19h115l76 19v-19l-37 -57h-115z" />
<glyph unicode="l" horiz-adv-x="822" d="M61 99v1342l59 59h119l59 -59v-20h-59l-20 -691v-394h20q0 59 39 59h20q0 -79 39 -79h316l59 -59v-20q-78 0 -78 -98l-20 -20h-435l-59 39q0 -79 -39 -79zM100 40v20l60 -20l375 20h99l98 19v-19l-59 -59h-533z" />
<glyph unicode="m" horiz-adv-x="867" d="M30 99v1362l31 39h154q60 0 169 -691l16 -19q0 -58 31 -58h30q154 768 216 768h108l46 -58v-19h-46v-1248l-46 -57l-31 38q0 -57 -31 -57h-15v422h-47v19q0 58 93 58v38h-154l-108 -480h-15l-16 19h-15q0 -76 -31 -76l-108 422q-46 0 -46 38l92 39v38h-154v-461l-46 -57 l-46 19v-38h-31zM45 41l16 19h138v-19l-30 -38h-93zM276 1039l31 39v19l-31 -39v-19zM307 905l31 38l-31 39v-77zM323 866l15 -96h16v58l-16 58h-15v-20zM384 41l16 19h108v-19l-31 -38h-62zM692 41v19h139v-19l-31 -38h-77z" />
<glyph unicode="n" horiz-adv-x="818" d="M62 99v1342l51 59h137q57 0 222 -592v-20h68v553l51 59h103l51 -59v-20h-51v-1243l-51 -59l-69 59v-79h-17q-62 92 -222 612q-51 0 -51 39l51 40h34v-40h17v20l-17 59h-170v-651l-52 -59l-34 39q0 -59 -34 -59h-17zM96 40v20h154v-20l-34 -39h-86zM386 711l35 -99h17v20 l-34 98h-18v-19zM438 553q25 -79 51 -79v20l-34 98h-17v-39zM489 435l17 -99h17v59l-17 59h-17v-19zM523 296l34 -98h17v20l-34 98h-17v-20zM557 60l205 19v-19l-51 -59h-102z" />
<glyph unicode="o" horiz-adv-x="818" d="M59 310v866q70 324 349 324q246 0 329 -307h-39q0 68 -39 68l39 -205l-19 -170l19 -491q-63 -290 -329 -290q-233 47 -233 187h-19v-51q101 -188 136 -188h232q93 0 232 120v-34q-97 -137 -271 -137h-116q-214 0 -271 308zM214 327h19q0 51 39 51q0 -103 116 -103 q155 0 155 120v661q0 154 -135 154l-78 -17v17q0 43 78 51l19 -17h19l78 17l77 -68v17q-40 102 -155 102h-97q-135 0 -135 -119v-866zM717 566v68h39v-68h-39zM717 1056v69h39v-69h-39z" />
<glyph unicode="p" horiz-adv-x="818" d="M54 1461l53 38h353q264 -39 264 -285h-35v-151l18 -76q-86 -342 -477 -342l-17 -19v-474l-36 -38l-52 38q0 -76 -36 -76l-17 19v19zM125 0v19q0 38 176 57v-19l-53 -57h-123zM213 892h17q0 57 36 57h17q0 -76 36 -76h141l88 95v151l-53 57h-123l-89 -19v19q0 57 194 57 l18 -19l18 19v19l70 -38v19l-53 57h-264l-53 -57v-341zM283 531v19q0 50 318 95l123 133v-38q-47 -166 -405 -209h-36zM724 1044v113h36v-113h-36z" />
<glyph unicode="q" horiz-adv-x="818" d="M57 312v787q0 270 176 348l156 55q351 -74 351 -330h-20q-39 0 -39 74h-19q39 -306 39 -788l-78 -274v-55h19l59 37h19v-19l-19 -18l39 -73l-20 -19h-19l-20 19l-39 -37h-19l-98 92h-156q-234 56 -234 183h-19v-37q71 -201 175 -201h137l19 -19h20l39 37l58 -55v-54h-19 l-59 36h-156q-224 0 -273 311zM194 330q39 0 39 55h39q0 -73 39 -73l39 37v311l58 55l78 -55h39v476q-19 55 -117 55h-39l-58 -37v37q0 42 97 55l20 -19h19l78 19l39 -74h20v19q0 110 -137 110h-156q-68 0 -97 -202v-769zM545 -54l214 19v-19l-58 -55h-98zM720 861v37l39 36 v-73h-39zM720 1044v74h39v-74h-39z" />
<glyph unicode="r" horiz-adv-x="818" d="M56 1366v76l54 57h360q271 -39 271 -285h-54l18 -189q0 -165 -162 -342v-95h18l144 133v-38l-90 -114q144 -329 144 -398l-108 -57l-36 95h-18v-38l18 -57l-18 -19h-36q-145 455 -181 455l-90 -19v19l108 76q54 0 54 -76h18v57l-54 57h-144l-54 -57v-455l-36 -38l-54 38 q0 -76 -36 -76l-18 19v19zM128 0v19q0 38 180 57v-19l-54 -57h-126zM218 911l54 38h18q0 -76 36 -76h144l91 95v151l-55 57h-126l-90 -19v19q0 44 253 76l36 -38h18v19l-54 57h-271l-54 -57v-322zM254 133v76h36v-38zM470 512l18 -57h18v19l-18 57h-18v-19zM506 417l37 -94 h18v19l-36 94h-19v-19zM561 247l18 -19h18v19l-18 57h-18v-57zM597 38l18 19h144v-19l-36 -38h-90zM723 1082v56h36v-56h-36z" />
<glyph unicode="s" horiz-adv-x="818" d="M57 369v109l40 37h120l61 -55v-18h-61v-92h21q0 55 40 55h20q5 -91 60 -91h40l100 18v201q-126 128 -200 128v55q133 0 240 -146h20v55q-104 100 -421 292l20 -91v-37h-20q-60 0 -80 256v183q26 274 301 274q287 0 361 -256l20 -91l-20 -19h-20q0 110 -40 110 q0 -146 -40 -146l-61 36q0 -73 -40 -73q-27 128 -60 128h-40l-100 -18v18q0 51 180 73l60 -54v36l-60 55h-160q-121 0 -121 -110v-183q41 0 41 55h40q0 -79 361 -310l80 -238h-40l-40 128h-20v-18q40 -72 40 -201v-19q-62 -292 -261 -292q-178 0 -281 237h-20v-18l121 -258 l-22 2q-4 -1 -7 -1q-60 0 -152 294zM177 771l40 36l41 -36v-55zM257 65l181 -7q134 0 241 73v-37q0 -73 -261 -91q-163 16 -163 54q0 4 2 8zM538 1027v18h121l100 18v-18l-60 -55h-121z" />
<glyph unicode="t" horiz-adv-x="818" d="M60 1265v176l58 58h585l58 -58v-20q-58 0 -58 -78q0 -58 -195 -58l-39 -59v-1051l-58 -58l-39 39q0 -59 -39 -59h-20v1032q0 39 -195 39l-19 19v39h117l97 20l39 -39h20v19q0 59 -234 78l-20 20q0 -59 -39 -59h-19zM352 39v19h175v-19l-39 -39h-97zM566 1168v19l39 39 h156v-19l-39 -39h-156z" />
<glyph unicode="u" horiz-adv-x="818" d="M62 456v986l57 57h114l56 -57v-19h-56v-1061h18q0 56 38 56h19q0 -88 76 -113h38q102 0 133 76v151l-19 512l19 417l56 38h95l57 -57v-19h-57v-1042q-79 -266 -246 -266h-38q-148 0 -265 209h-19v-19l95 -152v-57h-19q-152 89 -152 360zM270 58h266q99 0 208 133v-38 q-108 -151 -208 -151h-152q-98 0 -114 56z" />
<glyph unicode="v" horiz-adv-x="819" d="M59 1401h16l-16 19v40l33 39h99q77 0 213 -806h66q118 806 164 806h99l33 -39v-20q-99 0 -99 -413l-181 -904h-49l-49 39q0 -59 -33 -59h-17zM207 1381l16 -118h17v59l-17 79h-16v-20zM322 771l33 40v19l-33 -39v-20zM371 44v20h198v-20l-33 -39h-132z" />
<glyph unicode="w" horiz-adv-x="862" d="M32 1459l37 38h75q38 0 50 -155h-25q0 78 -25 78l25 -330l38 39h12v-78h-12l-13 20h-12v-117l37 39h13v-77h-13l-12 19h-13v-116l38 39h12v-97h25q18 0 75 504q39 232 75 232h87q32 0 62 -368h-25l-12 194h-25l37 -388h13l12 58l-12 78v19h25l12 -194h50v20 q50 581 87 581h75l25 -38v-20q-62 0 -62 -310q-113 -979 -137 -1008h-13q-31 0 -37 77h-13v-97h-25q-58 601 -100 601v20q0 53 63 58v39h-125q-70 -698 -125 -698h-24l-38 38l-12 -58h-25zM169 1245l25 39h13v-77h-13zM182 43v20h124l38 38v-38l-38 -59h-99zM493 1342l25 39 v39h-25v-78zM568 43v20h125v-20l-25 -39h-75z" />
<glyph unicode="x" horiz-adv-x="860" d="M20 95v20l257 673l-220 635v39l36 38h111q57 -3 183 -327h37l129 289l55 38h147l36 -38q-110 -19 -110 -96q-86 -126 -202 -501v-96l55 38h19l238 -692h-110q-73 38 -73 115h-19l19 -96v-39h-19q-29 0 -147 308h-18l-18 -19h-19v19q11 58 129 58v19l-37 39h-128 l-221 -404zM38 38v19h166l18 19h18v-38l-36 -38h-129zM112 1404l18 -58h19v20l-19 77h-18v-39zM149 1308l73 -173h18v19l-73 173h-18v-19zM240 1077l74 -193h18v39l-73 192h-19v-38zM516 384l55 -135h18v20l-55 134h-18v-19zM608 38v19h220v-19l-37 -38h-147z" />
<glyph unicode="y" horiz-adv-x="860" d="M26 1438v20l39 39h138q64 0 197 -433h39q50 0 158 414l19 19h158l39 -39q-157 -39 -157 -354q-177 -461 -177 -551v-374l-40 -40l-19 20h-20q0 -59 -40 -59h-19v98q0 545 -158 788zM105 1360q29 -79 59 -79v20l-40 98h-19v-39zM164 1241l19 -98h20v59l-20 59h-19v-20z M203 1104l20 -59h19v19l-19 59h-20v-19zM242 1005l40 -98h19v20l-39 98h-20v-20zM301 848l59 -79v20l-39 98h-20v-39zM380 41v19h158v-19l-40 -40h-78z" />
<glyph unicode="z" horiz-adv-x="819" d="M59 84v174l407 911h-333l-37 39v19h278l129 20l19 -20v20l-37 39h-315l-55 38q0 -77 -37 -77l-19 19v175l56 58h573l56 -58v-20h-56v-77l-407 -950v-58h19l55 39h19v-59h314l56 -58v-19q-74 0 -74 -97l-19 -19h-499l-19 19h-18q0 -78 -37 -78zM96 6v39h407l259 39v-20 l-55 -58h-315l-277 -19z" />
<glyph unicode="{" horiz-adv-x="684" />
<glyph unicode="|" horiz-adv-x="532" />
<glyph unicode="}" horiz-adv-x="684" />
<glyph unicode="~" horiz-adv-x="1196" />
<glyph unicode="&#xa1;" horiz-adv-x="682" />
<glyph unicode="&#xa2;" />
<glyph unicode="&#xa3;" />
<glyph unicode="&#xa5;" />
<glyph unicode="&#xa6;" horiz-adv-x="532" />
<glyph unicode="&#xa7;" />
<glyph unicode="&#xa8;" horiz-adv-x="682" />
<glyph unicode="&#xa9;" horiz-adv-x="1509" />
<glyph unicode="&#xaa;" horiz-adv-x="758" />
<glyph unicode="&#xab;" />
<glyph unicode="&#xac;" horiz-adv-x="1196" />
<glyph unicode="&#xad;" horiz-adv-x="880" d="M240 858q57 136 175 136q93 0 156 -136l-156 -117h-19l-78 59q19 -137 58 -137h20q155 24 155 117h39q-25 -175 -175 -175q-143 0 -175 253z" />
<glyph unicode="&#xae;" horiz-adv-x="1509" />
<glyph unicode="&#xaf;" horiz-adv-x="1131" />
<glyph unicode="&#xb0;" horiz-adv-x="819" />
<glyph unicode="&#xb1;" horiz-adv-x="1124" />
<glyph unicode="&#xb2;" horiz-adv-x="682" />
<glyph unicode="&#xb3;" horiz-adv-x="682" />
<glyph unicode="&#xb4;" horiz-adv-x="682" />
<glyph unicode="&#xb5;" horiz-adv-x="1180" />
<glyph unicode="&#xb6;" horiz-adv-x="1100" />
<glyph unicode="&#xb7;" horiz-adv-x="682" />
<glyph unicode="&#xb8;" horiz-adv-x="682" />
<glyph unicode="&#xb9;" horiz-adv-x="682" />
<glyph unicode="&#xba;" horiz-adv-x="748" />
<glyph unicode="&#xbb;" />
<glyph unicode="&#xbc;" horiz-adv-x="1708" />
<glyph unicode="&#xbd;" horiz-adv-x="1708" />
<glyph unicode="&#xbe;" horiz-adv-x="1708" />
<glyph unicode="&#xbf;" horiz-adv-x="1251" />
<glyph unicode="&#xc0;" horiz-adv-x="1366" />
<glyph unicode="&#xc1;" horiz-adv-x="1366" />
<glyph unicode="&#xc2;" horiz-adv-x="1366" />
<glyph unicode="&#xc3;" horiz-adv-x="1366" />
<glyph unicode="&#xc4;" horiz-adv-x="1366" />
<glyph unicode="&#xc5;" horiz-adv-x="1366" />
<glyph unicode="&#xc6;" horiz-adv-x="2048" />
<glyph unicode="&#xc7;" horiz-adv-x="1479" />
<glyph unicode="&#xc8;" horiz-adv-x="1366" />
<glyph unicode="&#xc9;" horiz-adv-x="1366" />
<glyph unicode="&#xca;" horiz-adv-x="1366" />
<glyph unicode="&#xcb;" horiz-adv-x="1366" />
<glyph unicode="&#xcc;" horiz-adv-x="569" />
<glyph unicode="&#xcd;" horiz-adv-x="569" />
<glyph unicode="&#xce;" horiz-adv-x="569" />
<glyph unicode="&#xcf;" horiz-adv-x="569" />
<glyph unicode="&#xd0;" horiz-adv-x="1479" />
<glyph unicode="&#xd1;" horiz-adv-x="1479" />
<glyph unicode="&#xd2;" horiz-adv-x="1593" />
<glyph unicode="&#xd3;" horiz-adv-x="1593" />
<glyph unicode="&#xd4;" horiz-adv-x="1593" />
<glyph unicode="&#xd5;" horiz-adv-x="1593" />
<glyph unicode="&#xd6;" horiz-adv-x="1593" />
<glyph unicode="&#xd7;" horiz-adv-x="1196" />
<glyph unicode="&#xd8;" horiz-adv-x="1593" />
<glyph unicode="&#xd9;" horiz-adv-x="1479" />
<glyph unicode="&#xda;" horiz-adv-x="1479" />
<glyph unicode="&#xdb;" horiz-adv-x="1479" />
<glyph unicode="&#xdc;" horiz-adv-x="1479" />
<glyph unicode="&#xdd;" horiz-adv-x="1366" />
<glyph unicode="&#xde;" horiz-adv-x="1366" />
<glyph unicode="&#xdf;" horiz-adv-x="1251" />
<glyph unicode="&#xe0;" />
<glyph unicode="&#xe1;" />
<glyph unicode="&#xe2;" />
<glyph unicode="&#xe3;" />
<glyph unicode="&#xe4;" />
<glyph unicode="&#xe5;" />
<glyph unicode="&#xe6;" horiz-adv-x="1821" />
<glyph unicode="&#xe7;" horiz-adv-x="1024" />
<glyph unicode="&#xe8;" />
<glyph unicode="&#xe9;" />
<glyph unicode="&#xea;" />
<glyph unicode="&#xeb;" />
<glyph unicode="&#xec;" horiz-adv-x="569" />
<glyph unicode="&#xed;" horiz-adv-x="569" />
<glyph unicode="&#xee;" horiz-adv-x="569" />
<glyph unicode="&#xef;" horiz-adv-x="569" />
<glyph unicode="&#xf0;" />
<glyph unicode="&#xf1;" />
<glyph unicode="&#xf2;" />
<glyph unicode="&#xf3;" />
<glyph unicode="&#xf4;" />
<glyph unicode="&#xf5;" />
<glyph unicode="&#xf6;" />
<glyph unicode="&#xf7;" horiz-adv-x="1124" />
<glyph unicode="&#xf8;" horiz-adv-x="1251" />
<glyph unicode="&#xf9;" />
<glyph unicode="&#xfa;" />
<glyph unicode="&#xfb;" />
<glyph unicode="&#xfc;" />
<glyph unicode="&#xfd;" horiz-adv-x="1024" />
<glyph unicode="&#xfe;" />
<glyph unicode="&#xff;" horiz-adv-x="1024" />
<glyph unicode="&#x152;" horiz-adv-x="2048" />
<glyph unicode="&#x153;" horiz-adv-x="1933" />
<glyph unicode="&#x178;" horiz-adv-x="1366" />
<glyph unicode="&#x2c6;" horiz-adv-x="682" />
<glyph unicode="&#x2dc;" horiz-adv-x="682" />
<glyph unicode="&#x2000;" horiz-adv-x="752" />
<glyph unicode="&#x2001;" horiz-adv-x="1504" />
<glyph unicode="&#x2002;" horiz-adv-x="752" />
<glyph unicode="&#x2003;" horiz-adv-x="1504" />
<glyph unicode="&#x2004;" horiz-adv-x="501" />
<glyph unicode="&#x2005;" horiz-adv-x="376" />
<glyph unicode="&#x2006;" horiz-adv-x="250" />
<glyph unicode="&#x2007;" horiz-adv-x="250" />
<glyph unicode="&#x2008;" horiz-adv-x="188" />
<glyph unicode="&#x2009;" horiz-adv-x="300" />
<glyph unicode="&#x200a;" horiz-adv-x="83" />
<glyph unicode="&#x2010;" horiz-adv-x="880" d="M240 858q57 136 175 136q93 0 156 -136l-156 -117h-19l-78 59q19 -137 58 -137h20q155 24 155 117h39q-25 -175 -175 -175q-143 0 -175 253z" />
<glyph unicode="&#x2011;" horiz-adv-x="880" d="M240 858q57 136 175 136q93 0 156 -136l-156 -117h-19l-78 59q19 -137 58 -137h20q155 24 155 117h39q-25 -175 -175 -175q-143 0 -175 253z" />
<glyph unicode="&#x2012;" horiz-adv-x="880" d="M240 858q57 136 175 136q93 0 156 -136l-156 -117h-19l-78 59q19 -137 58 -137h20q155 24 155 117h39q-25 -175 -175 -175q-143 0 -175 253z" />
<glyph unicode="&#x2013;" />
<glyph unicode="&#x2014;" horiz-adv-x="2048" />
<glyph unicode="&#x2018;" horiz-adv-x="455" />
<glyph unicode="&#x2019;" horiz-adv-x="455" />
<glyph unicode="&#x201a;" horiz-adv-x="455" />
<glyph unicode="&#x201c;" horiz-adv-x="682" />
<glyph unicode="&#x201d;" horiz-adv-x="682" />
<glyph unicode="&#x201e;" horiz-adv-x="682" />
<glyph unicode="&#x2022;" horiz-adv-x="717" />
<glyph unicode="&#x2026;" horiz-adv-x="2048" />
<glyph unicode="&#x202f;" horiz-adv-x="300" />
<glyph unicode="&#x2039;" horiz-adv-x="682" />
<glyph unicode="&#x203a;" horiz-adv-x="682" />
<glyph unicode="&#x205f;" horiz-adv-x="376" />
<glyph unicode="&#x20ac;" />
<glyph unicode="&#x2122;" horiz-adv-x="2048" />
<glyph unicode="&#x25fc;" horiz-adv-x="1500" d="M0 0v1500h1500v-1500h-1500z" />
<glyph unicode="&#xfb01;" horiz-adv-x="1024" />
<glyph unicode="&#xfb02;" horiz-adv-x="1024" />
</font>
</defs>
</svg>
